<mxfile host="www.draw.io" modified="2020-03-05T18:45:08.718Z" agent="Mozilla/5.0 (Windows NT 10.0; WOW64) AppleWebKit/537.36 (KHTML, like Gecko) Chrome/80.0.3987.132 Safari/537.36" etag="MqpLvTbJ_bdIXHXIp56e" version="12.8.0" type="github">
  <diagram id="L-ai7fAyJBnf2PLU2uu1" name="Page-1">
    <mxGraphModel dx="1185" dy="721" grid="0" gridSize="10" guides="1" tooltips="1" connect="1" arrows="1" fold="1" page="1" pageScale="1" pageWidth="850" pageHeight="1100" math="0" shadow="0">
      <root>
        <mxCell id="0" />
        <mxCell id="1" parent="0" />
        <mxCell id="LJsphAcHxgrP_2_Ti7BV-1" value="M1" style="ellipse;whiteSpace=wrap;html=1;aspect=fixed;fillColor=#d5e8d4;strokeColor=#82b366;" parent="1" vertex="1">
          <mxGeometry x="190" y="605" width="60" height="60" as="geometry" />
        </mxCell>
        <mxCell id="LJsphAcHxgrP_2_Ti7BV-2" value="M2" style="ellipse;whiteSpace=wrap;html=1;aspect=fixed;fillColor=#d5e8d4;strokeColor=#82b366;" parent="1" vertex="1">
          <mxGeometry x="190" y="500" width="60" height="60" as="geometry" />
        </mxCell>
        <mxCell id="LJsphAcHxgrP_2_Ti7BV-3" value="M3" style="ellipse;whiteSpace=wrap;html=1;aspect=fixed;fillColor=#d5e8d4;strokeColor=#82b366;" parent="1" vertex="1">
          <mxGeometry x="325" y="300" width="60" height="60" as="geometry" />
        </mxCell>
        <mxCell id="LJsphAcHxgrP_2_Ti7BV-4" value="S1" style="rhombus;whiteSpace=wrap;html=1;fillColor=#dae8fc;strokeColor=#6c8ebf;" parent="1" vertex="1">
          <mxGeometry x="325" y="220" width="60" height="60" as="geometry" />
        </mxCell>
        <mxCell id="LJsphAcHxgrP_2_Ti7BV-5" value="S2" style="rhombus;whiteSpace=wrap;html=1;fillColor=#dae8fc;strokeColor=#6c8ebf;" parent="1" vertex="1">
          <mxGeometry x="490" y="370" width="60" height="60" as="geometry" />
        </mxCell>
        <mxCell id="LJsphAcHxgrP_2_Ti7BV-6" value="S3" style="rhombus;whiteSpace=wrap;html=1;fillColor=#dae8fc;strokeColor=#6c8ebf;" parent="1" vertex="1">
          <mxGeometry x="600" y="370" width="60" height="60" as="geometry" />
        </mxCell>
        <mxCell id="D1XfDUeKwlj6QDrGRqhB-11" value="ST32&lt;br&gt;ADDR 1" style="rounded=1;whiteSpace=wrap;html=1;" parent="1" vertex="1">
          <mxGeometry x="120" y="610" width="60" height="50" as="geometry" />
        </mxCell>
        <mxCell id="D1XfDUeKwlj6QDrGRqhB-12" value="ST32&lt;br&gt;ADDR 2" style="rounded=1;whiteSpace=wrap;html=1;" parent="1" vertex="1">
          <mxGeometry x="120" y="505" width="60" height="50" as="geometry" />
        </mxCell>
        <mxCell id="D1XfDUeKwlj6QDrGRqhB-13" value="ST32&lt;br&gt;ADDR 3" style="rounded=1;whiteSpace=wrap;html=1;" parent="1" vertex="1">
          <mxGeometry x="250" y="310" width="60" height="50" as="geometry" />
        </mxCell>
        <mxCell id="IbV4gkOV_rrjl6jxVjrX-1" value="Base" style="text;html=1;strokeColor=none;fillColor=none;align=center;verticalAlign=middle;whiteSpace=wrap;rounded=0;" parent="1" vertex="1">
          <mxGeometry x="70" y="625" width="40" height="20" as="geometry" />
        </mxCell>
        <mxCell id="IbV4gkOV_rrjl6jxVjrX-2" value="Shoulder" style="text;html=1;strokeColor=none;fillColor=none;align=center;verticalAlign=middle;whiteSpace=wrap;rounded=0;" parent="1" vertex="1">
          <mxGeometry x="70" y="520" width="40" height="20" as="geometry" />
        </mxCell>
        <mxCell id="IbV4gkOV_rrjl6jxVjrX-3" value="Elbow" style="text;html=1;strokeColor=none;fillColor=none;align=center;verticalAlign=middle;whiteSpace=wrap;rounded=0;" parent="1" vertex="1">
          <mxGeometry x="190" y="325" width="40" height="20" as="geometry" />
        </mxCell>
        <mxCell id="IbV4gkOV_rrjl6jxVjrX-4" value="Forearm" style="text;html=1;strokeColor=none;fillColor=none;align=center;verticalAlign=middle;whiteSpace=wrap;rounded=0;" parent="1" vertex="1">
          <mxGeometry x="270" y="240" width="45" height="20" as="geometry" />
        </mxCell>
        <mxCell id="IbV4gkOV_rrjl6jxVjrX-5" value="Wrist" style="text;html=1;strokeColor=none;fillColor=none;align=center;verticalAlign=middle;whiteSpace=wrap;rounded=0;" parent="1" vertex="1">
          <mxGeometry x="497.5" y="350" width="45" height="20" as="geometry" />
        </mxCell>
        <mxCell id="IbV4gkOV_rrjl6jxVjrX-6" value="Hand" style="text;html=1;strokeColor=none;fillColor=none;align=center;verticalAlign=middle;whiteSpace=wrap;rounded=0;" parent="1" vertex="1">
          <mxGeometry x="607.5" y="350" width="45" height="20" as="geometry" />
        </mxCell>
      </root>
    </mxGraphModel>
  </diagram>
</mxfile>
